{"title":"1920 London (2016) - DesiScr - x264 - AAC [DDR]","uid":14547385,"size":727562321,"categoryP":"video","categoryS":"movies","magnet":"?xt=urn:btih:d5093dc5b0ca723991f5aa61267b2d3059e6b2d3&amp;dn=1920+London+%282016%29+-+DesiScr+-+x264+-+AAC+%5BDDR%5D&amp;tr=udp%3A%2F%2Ftracker.leechers-paradise.org%3A6969&amp;tr=udp%3A%2F%2Fzer0day.ch%3A1337&amp;tr=udp%3A%2F%2Fopen.demonii.com%3A1337&amp;tr=udp%3A%2F%2Ftracker.coppersurfer.tk%3A6969&amp;tr=udp%3A%2F%2Fexodus.desync.com%3A6969","seeders":1,"leechers":0,"uploader":"CDRiPD","files":3,"time":1462601391,"description":"1920 London (2016) - DesiScr - x264 - AAC [DDR]\r\n\r\nGeneral\r\nFormat                                   : Matroska\r\nFormat version                           : Version 2\r\nFile size                                : 684 MiB\r\nDuration                                 : 1h 58mn\r\nOverall bit rate                         : 810 Kbps\r\n\r\nVideo\r\nID                                       : 1\r\nFormat                                   : AVC\r\nFormat/Info                              : Advanced Video Codec\r\nFormat profile                           :   \r\nFormat settings, CABAC                   : Yes\r\nFormat settings, ReFrames                : 5 frames\r\nCodec ID                                 : V_MPEG4/ISO/AVC\r\nDuration                                 : 1h 58mn\r\nBit rate                                 : 728 Kbps\r\nWidth                                    : 656 pixels\r\nHeight                                   : 256 pixels\r\nDisplay aspect ratio                     : 2.563\r\nFrame rate mode                          : Constant\r\nFrame rate                               : 23.976 (24000/1001) fps\r\nColor space                              : YUV\r\nChroma subsampling                       : 4:2:0\r\nBit depth                                : 8 bits\r\nScan type                                : Progressive\r\nBits/(Pixel*Frame)                       : 0.181\r\nStream size                              : 615 MiB (90%)\r\nTitle                                    : 1920 London (2016) - DesiScr - x264 - AAC [DDR]\r\nWriting library                          : x264 core 148 r2692 64f4e24\r\nAudio\r\nID                                       : 2\r\nFormat                                   : AAC\r\nFormat/Info                              : Advanced Audio Codec\r\nFormat profile                           : HE-AAC / LC\r\nCodec ID                                 : A_AAC\r\nDuration                                 : 1h 58mn\r\nBit rate                                 : 80.0 Kbps\r\nChannel(s)                               : 2 channels\r\nChannel positions                        : Front: L R\r\nSampling rate                            : 48.0 KHz / 24.0 KHz\r\nFrame rate                               : 23.438 fps (1024 spf)\r\nCompression mode                         : Lossy\r\nDelay relative to video                  : 3ms\r\nStream size                              : 67.6 MiB (10%)\r\nTitle                                    : AAC Stereo\r\nLanguage                                 : Hindi\r\n\r\nScreen Shots:\r\n \nhttps://ititli.com/X5V \nhttps://ititli.com/X5t \nhttps://ititli.com/X5L \nhttps://ititli.com/X5d \nhttps://ititli.com/X50 \nhttps://ititli.com/X5A \nhttps://ititli.com/X5l \nhttps://ititli.com/X5m \nhttps://ititli.com/X5x \nhttps://ititli.com/X57 \nhttps://ititli.com/X5C \nhttps://ititli.com/X5F","torrent":{"xt":"urn:btih:d5093dc5b0ca723991f5aa61267b2d3059e6b2d3","amp;dn":"1920+London+%282016%29+-+DesiScr+-+x264+-+AAC+%5BDDR%5D","amp;tr":["udp%3A%2F%2Ftracker.leechers-paradise.org%3A6969","udp%3A%2F%2Fzer0day.ch%3A1337","udp%3A%2F%2Fopen.demonii.com%3A1337","udp%3A%2F%2Ftracker.coppersurfer.tk%3A6969","udp%3A%2F%2Fexodus.desync.com%3A6969"],"infoHash":"d5093dc5b0ca723991f5aa61267b2d3059e6b2d3","infoHashBuffer":{"type":"Buffer","data":[213,9,61,197,176,202,114,57,145,245,170,97,38,123,45,48,89,230,178,211]},"announce":[],"urlList":[]}}